<svg width="149" height="26" viewBox="0 0 149 26" fill="none" xmlns="http://www.w3.org/2000/svg">
<g clip-path="url(#clip0_1_271)">
<path d="M8.01235 20.5319C6.47846 20.5319 5.09795 20.2202 3.87083 19.597C2.66176 18.956 1.71435 18.0746 1.02861 16.9528C0.342871 15.831 0 14.5578 0 13.1333C0 11.7088 0.342871 10.4357 1.02861 9.31392C1.71435 8.19213 2.66176 7.31962 3.87083 6.6964C5.09795 6.05538 6.47846 5.73486 8.01235 5.73486C9.54625 5.73486 10.9177 6.05538 12.1268 6.6964C13.3359 7.31962 14.2833 8.19213 14.969 9.31392C15.6548 10.4357 15.9976 11.7088 15.9976 13.1333C15.9976 14.5578 15.6548 15.831 14.969 16.9528C14.2833 18.0746 13.3359 18.956 12.1268 19.597C10.9177 20.2202 9.54625 20.5319 8.01235 20.5319ZM8.01235 17.113C9.0951 17.113 9.97935 16.7569 10.6651 16.0447C11.3689 15.3146 11.7208 14.3442 11.7208 13.1333C11.7208 11.9225 11.3689 10.961 10.6651 10.2488C9.97935 9.5187 9.0951 9.15367 8.01235 9.15367C6.9296 9.15367 6.03633 9.5187 5.33255 10.2488C4.62876 10.961 4.27687 11.9225 4.27687 13.1333C4.27687 14.3442 4.62876 15.3146 5.33255 16.0447C6.03633 16.7569 6.9296 17.113 8.01235 17.113Z" fill="#010202"/>
<path d="M27.6718 5.73486C29.4764 5.73486 30.9291 6.26905 32.0298 7.33743C33.1487 8.4058 33.7081 9.99056 33.7081 12.0917V20.3182H29.4854V12.7327C29.4854 11.5931 29.2327 10.7473 28.7275 10.1953C28.2222 9.62553 27.4913 9.34063 26.5349 9.34063C25.4702 9.34063 24.622 9.67005 23.9904 10.3289C23.3588 10.9699 23.043 11.9314 23.043 13.2135V20.3182H18.8203V5.94854H22.8535V7.63123C23.413 7.02582 24.1077 6.56285 24.9378 6.24234C25.7679 5.90402 26.6793 5.73486 27.6718 5.73486Z" fill="#010202"/>
<path d="M51.9595 13.1868C51.9595 13.2402 51.9325 13.6141 51.8783 14.3086H40.8614C41.0599 15.1989 41.529 15.9022 42.2689 16.4186C43.0088 16.935 43.9291 17.1932 45.0299 17.1932C45.7879 17.1932 46.4556 17.0863 47.033 16.8727C47.6285 16.6412 48.1789 16.2851 48.6842 15.8043L50.9309 18.2081C49.5594 19.7573 47.5564 20.5319 44.9217 20.5319C43.2795 20.5319 41.8268 20.2202 40.5636 19.597C39.3004 18.956 38.3259 18.0746 37.6402 16.9528C36.9544 15.831 36.6116 14.5578 36.6116 13.1333C36.6116 11.7267 36.9454 10.4624 37.6131 9.34063C38.2988 8.20103 39.2282 7.31962 40.4012 6.6964C41.5922 6.05538 42.9186 5.73486 44.3803 5.73486C45.8059 5.73486 47.0962 6.03757 48.2511 6.64298C49.4061 7.2484 50.3083 8.1209 50.958 9.2605C51.6257 10.3823 51.9595 11.691 51.9595 13.1868ZM44.4074 8.88657C43.4509 8.88657 42.6479 9.15367 41.9982 9.68785C41.3486 10.222 40.9516 10.9521 40.8072 11.878H47.9804C47.8361 10.9699 47.4391 10.2488 46.7894 9.71456C46.1398 9.16257 45.3457 8.88657 44.4074 8.88657Z" fill="#010202"/>
<path d="M63.3789 5.73486C64.7323 5.73486 65.9594 6.04647 67.0602 6.66969C68.179 7.2751 69.0543 8.13871 69.6859 9.2605C70.3175 10.3645 70.6333 11.6554 70.6333 13.1333C70.6333 14.6113 70.3175 15.9111 69.6859 17.0329C69.0543 18.1369 68.179 19.0005 67.0602 19.6237C65.9594 20.2291 64.7323 20.5319 63.3789 20.5319C61.5201 20.5319 60.0584 19.9531 58.9937 18.7957V25.4998H54.771V5.94854H58.8042V7.60452C59.8509 6.35808 61.3758 5.73486 63.3789 5.73486ZM62.648 17.113C63.7308 17.113 64.615 16.7569 65.3007 16.0447C66.0045 15.3146 66.3564 14.3442 66.3564 13.1333C66.3564 11.9225 66.0045 10.961 65.3007 10.2488C64.615 9.5187 63.7308 9.15367 62.648 9.15367C61.5653 9.15367 60.672 9.5187 59.9682 10.2488C59.2825 10.961 58.9396 11.9225 58.9396 13.1333C58.9396 14.3442 59.2825 15.3146 59.9682 16.0447C60.672 16.7569 61.5653 17.113 62.648 17.113Z" fill="#010202"/>
<path d="M82.3115 5.73504C84.116 5.73504 85.5687 6.26923 86.6695 7.33761C87.7884 8.40598 88.3478 9.99074 88.3478 12.0919V20.3184H84.1251V12.7329C84.1251 11.5933 83.8724 10.7475 83.3671 10.1955C82.8619 9.62571 82.131 9.34081 81.1746 9.34081C80.1099 9.34081 79.2617 9.67023 78.6301 10.3291C77.9985 10.9701 77.6827 11.9316 77.6827 13.2137V20.3184H73.46V0.5H77.6827V7.44444C78.2421 6.89245 78.9188 6.474 79.7129 6.1891C80.5069 5.8864 81.3731 5.73504 82.3115 5.73504Z" fill="#010202"/>
<path d="M96.2087 7.84491C96.714 7.15046 97.3907 6.62518 98.2389 6.26905C99.1051 5.91293 100.098 5.73486 101.216 5.73486V9.58102C100.747 9.5454 100.431 9.5276 100.269 9.5276C99.06 9.5276 98.1126 9.86592 97.4268 10.5425C96.7411 11.2014 96.3982 12.1985 96.3982 13.534V20.3182H92.1755V5.94854H96.2087V7.84491Z" fill="#010202"/>
<path d="M109.522 5.73486C111.778 5.73486 113.51 6.26905 114.719 7.33743C115.928 8.388 116.533 9.98166 116.533 12.1184V20.3182H112.581V18.5286C111.787 19.8641 110.307 20.5319 108.141 20.5319C107.023 20.5319 106.048 20.3449 105.218 19.971C104.406 19.597 103.783 19.0806 103.35 18.4218C102.917 17.763 102.701 17.0151 102.701 16.1782C102.701 14.8427 103.206 13.7922 104.216 13.0265C105.245 12.2608 106.824 11.878 108.953 11.878H112.31C112.31 10.9699 112.03 10.2755 111.471 9.79469C110.911 9.29612 110.072 9.04683 108.953 9.04683C108.177 9.04683 107.411 9.17147 106.653 9.42076C105.913 9.65224 105.281 9.97275 104.758 10.3823L103.242 7.47097C104.036 6.91898 104.983 6.49163 106.084 6.18892C107.203 5.88622 108.349 5.73486 109.522 5.73486ZM109.197 17.7274C109.919 17.7274 110.56 17.5671 111.119 17.2466C111.678 16.9083 112.075 16.4186 112.31 15.7776V14.3086H109.414C107.681 14.3086 106.815 14.8695 106.815 15.9913C106.815 16.5254 107.023 16.9528 107.438 17.2733C107.871 17.576 108.457 17.7274 109.197 17.7274Z" fill="#010202"/>
<path d="M125.254 20.5319C124.045 20.5319 122.863 20.3894 121.708 20.1045C120.553 19.8018 119.633 19.4279 118.947 18.9827L120.354 15.9913C121.004 16.4008 121.789 16.7391 122.709 17.0062C123.63 17.2555 124.532 17.3801 125.416 17.3801C127.203 17.3801 128.096 16.9439 128.096 16.0714C128.096 15.6618 127.853 15.368 127.365 15.19C126.878 15.0119 126.129 14.8606 125.119 14.7359C123.928 14.5578 122.944 14.3531 122.168 14.1216C121.392 13.8901 120.715 13.4806 120.138 12.893C119.579 12.3054 119.299 11.4685 119.299 10.3823C119.299 9.47418 119.56 8.6729 120.084 7.97845C120.625 7.2662 121.401 6.71421 122.412 6.32247C123.44 5.93073 124.649 5.73486 126.039 5.73486C127.068 5.73486 128.087 5.8506 129.098 6.08208C130.126 6.29576 130.974 6.59847 131.642 6.99021L130.235 9.95495C128.953 9.2427 127.555 8.88657 126.039 8.88657C125.137 8.88657 124.46 9.01122 124.009 9.2605C123.558 9.50979 123.332 9.8303 123.332 10.222C123.332 10.6672 123.576 10.9788 124.063 11.1569C124.55 11.3349 125.326 11.5041 126.391 11.6643C127.582 11.8602 128.556 12.0739 129.314 12.3054C130.072 12.519 130.731 12.9197 131.29 13.5073C131.85 14.0949 132.129 14.914 132.129 15.9645C132.129 16.8549 131.859 17.6472 131.317 18.3417C130.776 19.0361 129.982 19.5792 128.935 19.971C127.907 20.3449 126.68 20.5319 125.254 20.5319Z" fill="#010202"/>
<path d="M149 13.1868C149 13.2402 148.973 13.6141 148.919 14.3086H137.902C138.1 15.1989 138.57 15.9022 139.309 16.4186C140.049 16.935 140.97 17.1932 142.07 17.1932C142.828 17.1932 143.496 17.0863 144.073 16.8727C144.669 16.6412 145.219 16.2851 145.725 15.8043L147.971 18.2081C146.6 19.7573 144.597 20.5319 141.962 20.5319C140.32 20.5319 138.867 20.2202 137.604 19.597C136.341 18.956 135.366 18.0746 134.681 16.9528C133.995 15.831 133.652 14.5578 133.652 13.1333C133.652 11.7267 133.986 10.4624 134.654 9.34063C135.339 8.20103 136.269 7.31962 137.442 6.6964C138.633 6.05538 139.959 5.73486 141.421 5.73486C142.846 5.73486 144.137 6.03757 145.292 6.64298C146.447 7.2484 147.349 8.1209 147.998 9.2605C148.666 10.3823 149 11.691 149 13.1868ZM141.448 8.88657C140.491 8.88657 139.688 9.15367 139.039 9.68785C138.389 10.222 137.992 10.9521 137.848 11.878H145.021C144.877 10.9699 144.48 10.2488 143.83 9.71456C143.18 9.16257 142.386 8.88657 141.448 8.88657Z" fill="#010202"/>
</g>
<defs>
<clipPath id="clip0_1_271">
<rect width="149" height="25" fill="white" transform="translate(0 0.5)"/>
</clipPath>
</defs>
</svg>
