<?xml version="1.0" encoding="UTF-8"?>
<svg id="_Слой_2" data-name="Слой 2" xmlns="http://www.w3.org/2000/svg" viewBox="0 0 8029.93 1175.58">
  <defs>
    <style>
      .cls-1 {
        fill: none;
        stroke: #000;
        stroke-miterlimit: 10;
        stroke-width: 14px;
      }
    </style>
  </defs>
  <g id="_Слой_1-2" data-name="Слой 1">
    <path d="m1206.23,1175.58c-11.17-1.31-22.33-2.8-33.52-3.9-86.97-8.51-164.77-39.26-231.01-96.7-71.79-62.26-119.87-139.15-140.25-232.5-5.11-23.39-8.76-47.01-9.48-71-.44-14.61-1.52-29.24-1.19-43.84,2.16-97.65,30.32-186.41,91.8-263.44,65.76-82.38,150.1-134.18,254.28-152.79,40.17-7.18,80.7-8.64,121.42-6.47,61.96,3.29,121.57,16.59,176.23,46.27,115.58,62.79,188.81,158.39,217.67,287.04,9.74,43.42,12.17,87.58,9.45,131.87-6.21,100.97-41.71,189.97-110,265.53-63.87,70.67-142.37,114.84-236.25,131.2-20.6,3.59-41.6,4.88-62.41,7.29-2.27.26-4.5.96-6.74,1.45h-39.99Zm291.49-436.59c-1.78-18.15-2.6-36.46-5.5-54.43-12.81-79.5-52.6-142.66-118.21-189.17-40.79-28.92-87.17-41.88-136.89-43.44-41.46-1.3-81.8,4.33-119.69,21.88-67.32,31.19-113.3,82.86-140.58,151.03-21.09,52.71-24.86,107.75-16.84,163.64,10.52,73.31,44.72,133.84,101.64,180.89,65.69,54.29,141.88,66.87,223.67,51.09,60.4-11.66,108.17-44.64,146.59-91.89,44.89-55.21,64.76-118.94,65.8-189.59Z"/>
    <path d="m4281.49,1175.58c-11.85-1.32-23.69-2.69-35.54-3.96-83.67-8.96-158.22-38.16-218.31-98.84-42.09-42.5-68.17-93.85-82.04-151.64-8.33-34.72-12.36-69.97-12.36-105.68,0-160.41,0-320.82,0-481.22v-13.39h165.74c0,4.59,0,8.81,0,13.03,0,155.42.08,310.83-.07,466.25-.03,28.69,1.56,57.13,8.7,85.05,11.99,46.94,36.11,85.54,77.77,111.83,24.63,15.54,51.83,23.87,80.64,27.34,33.71,4.06,67.25,3.37,100.14-5.34,67.2-17.8,108.51-61.79,127.2-127.86,7.56-26.72,10.39-54.11,10.4-81.82.01-158.41,0-316.82,0-475.23v-13.29h165.23c.22,3.32.59,6.22.59,9.11.02,160.07.11,320.15-.06,480.22-.05,51.53-6.44,102.23-24.63,150.74-37.11,98.97-107.96,162.45-207.89,194.63-35.06,11.29-71.3,16.2-107.94,18.63-1.89.13-3.73.94-5.6,1.44h-41.99Z"/>
    <path d="m1.35,320.71c3.66-.19,6.9-.49,10.15-.49,125.6-.02,251.21-.13,376.81.07,41.81.06,83.17,4.36,122.8,18.59,83.07,29.84,133.86,88.03,150.43,174.73,6.99,36.58,5.67,73.5-3.57,109.77-11.85,46.55-38.3,82.81-78.59,109-3.25,2.12-6.51,4.22-9.74,6.32,11.24,8.43,22.38,15.8,32.38,24.48,32.14,27.86,51.13,63.31,58.76,104.96,8.36,45.64,6.8,90.91-9.14,134.63-24.52,67.25-71.79,112.34-139.12,136.3-34.77,12.38-70.96,18.32-107.76,18.44-130.93.42-261.87.22-392.81.25-3.29,0-6.58,0-9.64,0C-.06,1149.99-.97,338.92,1.35,320.71Zm165.68,345.16h12.66c60.6,0,121.19.08,181.79-.07,11.96-.03,23.98-.33,35.87-1.5,22.06-2.16,43.14-7.88,62.14-19.85,18.17-11.46,30.9-27.17,36.61-48,5.66-20.66,5.19-41.43-.73-61.95-8.82-30.58-30.53-48.11-59.79-57.62-21.12-6.86-42.99-8.73-65.01-8.78-64.93-.15-129.85-.08-194.78-.04-2.84,0-5.67.53-8.78.83v196.98Zm.06,343.5c2.34.26,3.64.54,4.95.54,70.98,0,141.97.49,212.94-.28,27.22-.29,53.46-6.71,76.87-21.79,16.6-10.7,28.21-25.29,33.74-44.25,4.51-15.48,5.39-31.25,3.19-47.36-4.07-29.75-18.22-52.34-45.28-66.27-21.17-10.89-44.07-15.39-67.5-15.59-69.97-.61-139.96-.45-209.94-.54-2.87,0-5.74.44-8.97.71v194.84Z"/>
    <path d="m5685.32,320.2c4.03,0,7.6,0,11.17,0,123.93,0,247.87-.07,371.8.04,42.81.04,85.16,4.04,125.8,18.52,80.71,28.76,131.41,84.58,149.54,168.56,8.61,39.88,7.47,80.01-3.19,119.45-11.93,44.15-37.38,78.92-75.62,104.23-3.86,2.55-7.72,5.09-12.28,8.09,3.55,2.38,6.47,4.4,9.45,6.33,46.84,30.34,74.34,73.28,83.21,128.13,7.23,44.72,5.15,89.02-11.03,131.58-26.15,68.79-75.58,113.68-145.39,136.3-33.48,10.85-68.03,16.05-103.17,16.13-129.93.27-259.86.16-389.79.2-3.27,0-6.54,0-10.51,0V320.2Zm164.85,345.67h11.5c62.29,0,124.58.07,186.87-.07,10.97-.02,21.99-.36,32.89-1.51,20.34-2.15,39.9-7.28,57.79-17.63,20.52-11.87,34.86-28.64,40.62-51.92,5.47-22.15,4.74-44.24-2.92-65.75-9.83-27.62-30.89-43.28-57.85-52.07-21.44-6.99-43.67-8.79-66.04-8.84-64.62-.13-129.24-.07-193.87-.03-2.86,0-5.73.46-9.01.74v197.07Zm-.05,343.65c3.36.18,5.68.41,7.99.41,69.28,0,138.56,0,207.84-.07,4.32,0,8.65-.39,12.95-.85,23.05-2.47,45.18-7.9,65.12-20.36,17.06-10.66,28.88-25.37,34.85-44.6,4.4-14.18,5.18-28.75,3.79-43.42-3.37-35.54-20.82-60.96-54.36-74.67-18.72-7.66-38.37-11.46-58.4-11.61-70.27-.53-140.55-.43-210.83-.52-2.86,0-5.71.46-8.93.74v194.95Z"/>
    <path d="m3304.52,320.78h164.21v836.33c-3.07.23-5.95.62-8.83.62-53.98.04-107.96-.11-161.94.21-6.62.04-10.12-2.43-13.7-7.48-120.94-170.8-242.02-341.51-363.08-512.23-13.47-19-26.97-37.98-40.48-56.96-1.7-2.38-3.5-4.68-5.17-6.9-.74.22-1.12.24-1.36.43-.22.18-.37.53-.41.83-.13.98-.28,1.97-.28,2.96-.04,191.67-.06,383.34-.09,575,0,.66-.12,1.33-.27,1.97-.07.3-.35.54-1.01,1.5h-163.01c-1.97-6.76-2.61-822.2-.47-836.38,3.36-.16,6.92-.47,10.48-.47,52.31-.03,104.63.13,156.94-.18,7.78-.05,12.55,2.23,17.16,8.75,116.63,164.89,233.51,329.6,350.34,494.34,17.32,24.43,34.62,48.88,51.94,73.3,1.9,2.67,3.93,5.25,5.8,7.72.79-.27,1.14-.32,1.4-.5.23-.16.47-.43.53-.7.14-.64.25-1.31.25-1.97.11-192.66.21-385.32.32-577.99,0-.31.19-.61.72-2.23Z"/>
    <path d="m1822.12,468.02v-147.04c3.14-.28,5.99-.75,8.84-.75,136.63-.02,273.26-.15,409.9.1,41.49.07,82.55,4.63,121.83,18.75,88.8,31.91,141.89,95.03,159.28,187.2,9.92,52.59,5.94,104.8-14.45,154.78-30.98,75.98-87.33,123.02-166.67,143.08-6.44,1.63-12.94,3.04-21,4.92,83.49,109.38,166.49,218.13,250.49,328.18-4.93.23-8.12.5-11.31.51-61.65.03-123.3-.11-184.95.19-7.17.03-11.39-2.47-15.58-7.99-77.49-102.03-155.2-203.88-232.67-305.91-4.22-5.55-8.4-8.09-15.57-8.02-37.32.36-74.65.17-111.97.17h-10.02c-1.16,12.2-.41,24.05-.55,35.85-.14,11.65-.03,23.3-.03,34.94v250.09h-164.35c-1.99-6.73-2.86-449.81-.71-468.65h11.44c132.3,0,264.6.06,396.9-.06,25.62-.02,50.43-4.71,73.29-16.75,28.96-15.26,48.73-38.19,54.44-71,5.9-33.87,1.19-65.78-22.71-92.47-17.28-19.29-39.68-29.77-64.62-35.35-17.66-3.96-35.61-4.75-53.62-4.75-127.3,0-254.6,0-381.9,0-4.26,0-8.52,0-13.73,0Z"/>
    <path d="m7107.94,1009.62v147.46h-588.06V321.85c7.84-2.08,577.45-2.43,587.99-.34v146.44h-422.08v196.32h412.63v147.73h-412.44v197.62h421.97Z"/>
    <path d="m5304.35,467.72h-470.06v-146.82h678.46c.25,2.46.73,4.99.74,7.54.05,44.26-.08,88.52.18,132.77.03,5.6-2.17,9.31-5.55,13.17-51.04,58.36-101.99,116.79-152.98,175.19-62.6,71.68-125.22,143.33-187.82,215-39.84,45.61-79.66,91.23-119.48,136.86-1.91,2.19-3.65,4.53-6.5,8.1h470.25c2.32,7.91,3.03,132,1.04,147.59h-676.8c-.24-2.59-.68-5.12-.69-7.66-.04-43.59.11-87.19-.19-130.78-.04-6.24,2.03-10.68,5.91-15.12,38.78-44.32,77.48-88.71,116.16-133.13,94.83-108.91,189.62-217.84,284.44-326.76,20.1-23.09,40.23-46.15,60.33-69.24,1.24-1.42,2.34-2.97,3.51-4.46-.31-.76-.62-1.51-.94-2.27Z"/>
    <path d="m7588.73,739.16c135.99,139.18,271.53,277.9,408.49,418.07-5.29.24-8.47.51-11.65.51-65.65.02-131.3-.08-196.94.17-6.9.03-11.66-1.91-16.47-6.89-41.39-42.89-83.05-85.52-124.64-128.22-58.09-59.63-116.19-119.25-174.3-178.86-4.86-4.98-9.8-9.88-16.15-16.27-1.27,11.32-.52,21.09-.66,30.78-.14,9.98-.03,19.97-.03,29.95v268.8h-165.27V321.92c7-2.14,153.4-2.62,165.18-.3v336.69c3.56-3.24,5.5-4.85,7.26-6.63,63.99-65.04,127.97-130.1,191.93-195.17,42.48-43.22,85-86.42,127.33-129.79,4.52-4.63,9.11-6.68,15.68-6.65,62.65.22,125.3.13,187.95.15,2.93,0,5.85.25,11.14.49-137.07,140.29-272.77,279.18-408.85,418.45Z"/>
    <path d="m7921.44,138.71h-19.8V51.79c17.12,0,33.75-1.19,50.11.39,12.26,1.19,19.91,10.12,21.82,22.68,1.74,11.46-1.89,20.9-11.83,27.47-.83.55-1.79.91-2.59,1.49-.51.37-.83.99-1.9,2.34,7.71,10.21,15.59,20.66,24.87,32.96-8.87,0-15.95.3-22.98-.21-1.76-.13-3.59-2.63-4.95-4.39-6.88-8.92-13.62-17.95-20.42-26.95h-12.35v31.12Zm.31-69.2v18.76c8.67,0,16.55.28,24.4-.11,4.29-.21,7.37-2.84,7.97-7.44.57-4.36-.83-7.9-5.11-9.62-2.1-.84-4.44-1.45-6.69-1.52-6.57-.2-13.15-.07-20.56-.07Z"/>
    <circle class="cls-1" cx="7933.93" cy="96" r="89"/>
  </g>
</svg>