<svg width="40" height="41" viewBox="0 0 40 41" fill="none" xmlns="http://www.w3.org/2000/svg">
<path fill-rule="evenodd" clip-rule="evenodd" d="M20 40.4497C31.0456 40.4497 40 31.4953 40 20.4497C40 9.40411 31.0456 0.449707 20 0.449707C8.9544 0.449707 0 9.40411 0 20.4497C0 31.4953 8.9544 40.4497 20 40.4497ZM28.7908 13.2273C28.9452 11.4753 27.0948 12.1969 27.0948 12.1969C25.7288 12.7625 24.32 13.3369 22.896 13.9177C18.48 15.7189 13.9184 17.5797 10.0324 19.4113C7.9252 20.1841 9.1588 20.9569 9.1588 20.9569L12.4992 21.9877C14.0412 22.4517 14.8632 21.9361 14.8632 21.9361L22.0584 17.0409C24.628 15.2889 24.0112 16.7317 23.3944 17.3501L17.9984 22.5029C17.176 23.2245 17.5872 23.8429 17.9468 24.1521C18.9668 25.0517 21.4748 26.6977 22.5696 27.4161C22.8544 27.6029 23.0436 27.7273 23.0864 27.7593C23.3432 27.9653 24.7308 28.8929 25.656 28.6869C26.5812 28.4805 26.684 27.2953 26.684 27.2953L27.9172 19.2049C28.102 17.8005 28.3144 16.4505 28.484 15.3721C28.644 14.3537 28.766 13.5781 28.7908 13.2273Z" fill="#010202"/>
</svg>
