<svg width="40" height="41" viewBox="0 0 40 41" fill="none" xmlns="http://www.w3.org/2000/svg">
<path fill-rule="evenodd" clip-rule="evenodd" d="M20 40.4497C31.0457 40.4497 40 31.4954 40 20.4497C40 9.40403 31.0457 0.449707 20 0.449707C8.95432 0.449707 0 9.40403 0 20.4497C0 31.4954 8.95432 40.4497 20 40.4497ZM27.905 12.0468C25.8469 9.98611 23.1096 8.85079 20.1933 8.84971C14.1846 8.84971 9.29384 13.7398 9.29168 19.7506C9.29096 21.672 9.79292 23.5475 10.7467 25.2005L9.2 30.8497L14.9791 29.3339C16.5713 30.2026 18.3643 30.6602 20.1886 30.6609H20.1929C26.2012 30.6609 31.092 25.7701 31.0945 19.7597C31.0963 16.8463 29.9636 14.1075 27.905 12.0468ZM25.1634 22.0332C24.891 21.8968 23.552 21.238 23.302 21.1471C23.0525 21.0561 22.8706 21.0107 22.6891 21.2835C22.5076 21.5563 21.9856 22.1696 21.8266 22.3515C21.6677 22.5334 21.5087 22.5559 21.2366 22.4195C21.1921 22.3972 21.1313 22.3709 21.0564 22.3384C20.6728 22.172 19.9162 21.8439 19.046 21.0674C18.2363 20.345 17.6896 19.4531 17.5306 19.1806C17.3716 18.9078 17.5135 18.7605 17.6499 18.6247C17.7317 18.5432 17.8256 18.4288 17.9195 18.3145C17.9663 18.2575 18.0131 18.2004 18.0584 18.1475C18.1738 18.0127 18.224 17.9103 18.2921 17.7717C18.3043 17.7468 18.317 17.7207 18.3309 17.6932C18.4218 17.5113 18.3764 17.3523 18.3083 17.2159C18.2629 17.1248 18.0047 16.4964 17.7706 15.9266C17.6542 15.6433 17.5438 15.3745 17.4684 15.1934C17.2731 14.7245 17.0753 14.7257 16.9165 14.7267C16.8954 14.7268 16.875 14.7269 16.8554 14.7259C16.6968 14.7179 16.515 14.7165 16.3334 14.7165C16.1519 14.7165 15.8569 14.7845 15.607 15.0573C15.5909 15.0749 15.5729 15.0941 15.5534 15.115C15.2695 15.4181 14.6536 16.0756 14.6536 17.3298C14.6536 18.6673 15.6248 19.9596 15.765 20.1461L15.766 20.1475C15.7748 20.1593 15.7907 20.1821 15.8133 20.2145C16.1385 20.681 17.8646 23.1573 20.4192 24.2605C21.0693 24.5413 21.5764 24.7087 21.9721 24.8342C22.6247 25.0415 23.2184 25.0124 23.688 24.9422C24.2114 24.864 25.2995 24.2835 25.5264 23.6472C25.7534 23.011 25.7534 22.4654 25.6854 22.3519C25.6306 22.26 25.5018 22.1977 25.311 22.1055C25.2653 22.0834 25.216 22.0596 25.1634 22.0332Z" fill="#010202"/>
</svg>
