<svg width="40" height="41" viewBox="0 0 40 41" fill="none" xmlns="http://www.w3.org/2000/svg">
<path fill-rule="evenodd" clip-rule="evenodd" d="M20 40.4497C31.0456 40.4497 40 31.4953 40 20.4497C40 9.40411 31.0456 0.449707 20 0.449707C8.9544 0.449707 0 9.40411 0 20.4497C0 31.4953 8.9544 40.4497 20 40.4497ZM10 14.0497C10.1624 21.8449 14.06 26.5297 20.8932 26.5297H21.2804V22.0697C23.7916 22.3197 25.69 24.1561 26.4524 26.5297H30C29.0256 22.9817 26.4648 21.0205 24.8656 20.2709C26.4648 19.3465 28.7132 17.0977 29.2504 14.0497H26.0272C25.3276 16.5233 23.2544 18.7717 21.2804 18.9841V14.0497H18.0576V22.6941C16.0588 22.1945 13.5352 19.7713 13.4224 14.0497H10Z" fill="#010202"/>
</svg>
